<svg xmlns="http://www.w3.org/2000/svg" xmlns:xlink="http://www.w3.org/1999/xlink" width="1024" zoomAndPan="magnify" viewBox="0 0 768 767.999994" height="1024" preserveAspectRatio="xMidYMid meet" version="1.2"><defs><clipPath id="9e50c2ecc2"><path d="M 0 16.757812 L 768 16.757812 L 768 751.007812 L 0 751.007812 Z M 0 16.757812 "/></clipPath></defs><g id="e57a542151"><g clip-rule="nonzero" clip-path="url(#9e50c2ecc2)"><path style=" stroke:none;fill-rule:nonzero;fill:#000000;fill-opacity:1;" d="M 445.398438 560.335938 C 445.398438 559.691406 444.917969 559.050781 444.273438 558.890625 C 374.882812 533.511719 328.296875 466.847656 328.296875 392.957031 C 328.296875 319.066406 374.882812 252.402344 444.273438 227.023438 C 444.917969 226.863281 445.398438 226.222656 445.398438 225.578125 C 445.398438 224.9375 444.917969 224.292969 444.273438 224.132812 C 424.515625 216.902344 403.636719 213.210938 382.433594 213.210938 C 283.160156 213.210938 202.523438 293.847656 202.523438 393.117188 C 202.523438 492.386719 283.160156 573.027344 382.433594 573.027344 C 403.636719 573.027344 424.515625 569.332031 444.273438 562.101562 C 444.917969 561.621094 445.398438 560.976562 445.398438 560.335938 Z M 382.433594 569.492188 C 284.929688 569.492188 205.734375 490.140625 205.734375 392.796875 C 205.734375 295.292969 284.929688 216.101562 382.433594 216.101562 C 401.867188 216.101562 420.824219 219.152344 438.972656 225.417969 C 370.707031 252.402344 325.085938 319.066406 325.085938 392.796875 C 325.085938 466.527344 370.707031 533.351562 438.972656 560.175781 C 420.824219 566.441406 401.867188 569.492188 382.433594 569.492188 Z M 440.097656 390.707031 C 440.257812 391.511719 440.902344 392.152344 441.703125 392.152344 C 442.507812 392.152344 443.152344 391.511719 443.3125 390.707031 L 446.84375 359.546875 L 473.832031 355.53125 C 474.632812 355.367188 475.277344 354.726562 475.277344 353.921875 C 475.277344 353.121094 474.632812 352.476562 473.832031 352.316406 L 446.84375 348.300781 L 443.3125 317.300781 C 443.152344 316.496094 442.507812 315.855469 441.703125 315.855469 C 440.902344 315.855469 440.257812 316.496094 440.097656 317.300781 L 436.566406 348.300781 L 409.578125 352.316406 C 408.777344 352.476562 408.132812 353.121094 408.132812 353.921875 C 408.132812 354.726562 408.777344 355.367188 409.578125 355.53125 L 436.566406 359.386719 Z M 438.332031 351.515625 C 438.972656 351.351562 439.617188 350.871094 439.617188 350.066406 L 441.703125 332.078125 L 443.792969 350.066406 C 443.953125 350.871094 444.4375 351.351562 445.078125 351.515625 L 462.425781 354.085938 L 445.078125 356.652344 C 444.4375 356.816406 443.792969 357.296875 443.792969 358.101562 L 441.703125 376.25 L 439.617188 358.101562 C 439.457031 357.296875 438.972656 356.816406 438.171875 356.652344 L 420.824219 354.085938 Z M 487.324219 495.921875 C 487.484375 496.726562 488.128906 497.367188 488.929688 497.367188 C 489.734375 497.367188 490.375 496.726562 490.539062 495.921875 L 492.625 476.644531 L 509.171875 474.238281 C 509.972656 474.078125 510.617188 473.433594 510.617188 472.628906 C 510.617188 471.828125 509.972656 471.183594 509.171875 471.023438 L 492.625 468.613281 L 490.539062 449.5 C 490.375 448.695312 489.734375 448.054688 488.929688 448.054688 C 488.128906 448.054688 487.484375 448.695312 487.324219 449.5 L 485.238281 468.613281 L 468.691406 471.183594 C 467.886719 471.34375 467.246094 471.988281 467.246094 472.792969 C 467.246094 473.59375 467.886719 474.238281 468.691406 474.398438 L 485.238281 476.808594 Z M 486.84375 471.667969 C 487.484375 471.507812 488.128906 471.023438 488.128906 470.222656 L 488.769531 464.117188 L 489.414062 470.222656 C 489.574219 471.023438 490.054688 471.507812 490.699219 471.667969 L 497.765625 472.628906 L 490.699219 473.59375 C 490.054688 473.753906 489.414062 474.238281 489.414062 475.039062 L 488.769531 481.304688 L 488.128906 475.039062 C 487.96875 474.238281 487.484375 473.753906 486.683594 473.59375 L 479.613281 472.628906 Z M 413.753906 417.695312 L 405.722656 425.566406 L 410.222656 435.847656 L 400.261719 430.546875 L 391.910156 438.09375 L 393.835938 427.011719 L 384.199219 421.390625 L 395.28125 419.78125 L 397.691406 408.859375 L 402.671875 418.980469 Z M 519.773438 371.914062 L 512.222656 376.25 L 519.773438 380.589844 C 520.574219 381.070312 520.734375 382.035156 520.414062 382.835938 C 520.09375 383.320312 519.613281 383.640625 518.96875 383.640625 C 518.648438 383.640625 518.488281 383.640625 518.164062 383.480469 L 510.617188 379.144531 L 510.617188 387.976562 C 510.617188 388.941406 509.972656 389.582031 509.011719 389.582031 C 508.046875 389.582031 507.402344 388.941406 507.402344 387.976562 L 507.402344 379.144531 L 499.855469 383.480469 C 499.53125 383.640625 499.371094 383.640625 499.050781 383.640625 C 498.570312 383.640625 497.925781 383.320312 497.605469 382.835938 C 497.125 382.035156 497.445312 381.070312 498.246094 380.589844 L 505.796875 376.25 L 498.246094 371.914062 C 497.445312 371.433594 497.285156 370.46875 497.605469 369.664062 C 498.085938 368.863281 499.050781 368.703125 499.855469 369.023438 L 507.402344 373.359375 L 507.402344 364.523438 C 507.402344 363.5625 508.046875 362.917969 509.011719 362.917969 C 509.972656 362.917969 510.617188 363.5625 510.617188 364.523438 L 510.617188 373.359375 L 518.164062 369.023438 C 518.96875 368.539062 519.933594 368.863281 520.414062 369.664062 C 520.898438 370.46875 520.574219 371.59375 519.773438 371.914062 Z M 427.25 267.34375 C 427.25 263.167969 423.875 259.792969 419.699219 259.792969 C 415.523438 259.792969 412.148438 263.167969 412.148438 267.34375 C 412.148438 271.519531 415.523438 274.890625 419.699219 274.890625 C 423.875 274.890625 427.25 271.519531 427.25 267.34375 Z M 415.363281 267.34375 C 415.363281 264.933594 417.289062 263.003906 419.699219 263.003906 C 422.109375 263.003906 424.035156 264.933594 424.035156 267.34375 C 424.035156 269.753906 422.109375 271.679688 419.699219 271.679688 C 417.289062 271.679688 415.363281 269.753906 415.363281 267.34375 Z M 504.03125 303.484375 C 506.761719 303.484375 509.011719 305.734375 509.011719 308.464844 C 509.011719 311.195312 506.761719 313.445312 504.03125 313.445312 C 501.300781 313.445312 499.050781 311.195312 499.050781 308.464844 C 499.050781 305.734375 501.140625 303.484375 504.03125 303.484375 Z M 418.09375 510.378906 C 418.09375 515.199219 422.109375 519.214844 426.925781 519.214844 C 431.746094 519.214844 435.761719 515.199219 435.761719 510.378906 C 435.761719 505.558594 431.746094 501.542969 426.925781 501.542969 C 422.109375 501.542969 418.09375 505.558594 418.09375 510.378906 Z M 432.550781 510.378906 C 432.550781 513.429688 429.980469 516 426.925781 516 C 423.875 516 421.304688 513.429688 421.304688 510.378906 C 421.304688 507.328125 423.875 504.757812 426.925781 504.757812 C 429.980469 504.757812 432.550781 507.328125 432.550781 510.378906 Z M 350.625 53.863281 C 356.410156 53.863281 361.066406 49.203125 361.066406 43.421875 C 361.066406 37.636719 356.410156 32.980469 350.625 32.980469 C 344.84375 32.980469 340.183594 37.636719 340.183594 43.421875 C 340.183594 49.203125 345.003906 53.863281 350.625 53.863281 Z M 350.625 36.191406 C 354.640625 36.191406 357.855469 39.40625 357.855469 43.421875 C 357.855469 47.4375 354.640625 50.648438 350.625 50.648438 C 346.609375 50.648438 343.398438 47.4375 343.398438 43.421875 C 343.558594 39.40625 346.769531 36.191406 350.625 36.191406 Z M 616.3125 127.914062 C 621.773438 127.914062 626.273438 123.417969 626.273438 117.953125 C 626.273438 112.492188 621.773438 107.996094 616.3125 107.996094 C 610.851562 107.996094 606.351562 112.492188 606.351562 117.953125 C 606.191406 123.417969 610.691406 127.914062 616.3125 127.914062 Z M 616.3125 111.207031 C 620.007812 111.207031 623.058594 114.261719 623.058594 117.953125 C 623.058594 121.648438 620.007812 124.703125 616.3125 124.703125 C 612.617188 124.703125 609.566406 121.648438 609.566406 117.953125 C 609.40625 114.261719 612.457031 111.207031 616.3125 111.207031 Z M 698.714844 516 C 693.253906 516 688.757812 520.5 688.757812 525.960938 C 688.757812 531.421875 693.253906 535.917969 698.714844 535.917969 C 704.179688 535.917969 708.675781 531.421875 708.675781 525.960938 C 708.835938 520.5 704.339844 516 698.714844 516 Z M 698.714844 532.867188 C 695.023438 532.867188 691.96875 529.816406 691.96875 526.121094 C 691.96875 522.425781 695.023438 519.375 698.714844 519.375 C 702.410156 519.375 705.464844 522.425781 705.464844 526.121094 C 705.625 529.816406 702.570312 532.867188 698.714844 532.867188 Z M 556.71875 664.265625 C 551.257812 664.265625 546.757812 668.761719 546.757812 674.222656 C 546.757812 679.6875 551.257812 684.183594 556.71875 684.183594 C 562.179688 684.183594 566.675781 679.6875 566.675781 674.222656 C 566.675781 668.761719 562.179688 664.265625 556.71875 664.265625 Z M 556.71875 681.132812 C 553.023438 681.132812 549.972656 678.078125 549.972656 674.382812 C 549.972656 670.691406 553.023438 667.636719 556.71875 667.636719 C 560.414062 667.636719 563.464844 670.691406 563.464844 674.382812 C 563.464844 678.078125 560.414062 681.132812 556.71875 681.132812 Z M 201.398438 655.109375 C 195.617188 655.109375 190.957031 659.765625 190.957031 665.550781 C 190.957031 671.332031 195.617188 675.992188 201.398438 675.992188 C 207.183594 675.992188 211.839844 671.332031 211.839844 665.550781 C 211.839844 659.765625 207.183594 655.109375 201.398438 655.109375 Z M 201.398438 672.777344 C 197.382812 672.777344 194.171875 669.566406 194.171875 665.550781 C 194.171875 661.535156 197.382812 658.320312 201.398438 658.320312 C 205.414062 658.320312 208.628906 661.535156 208.628906 665.550781 C 208.628906 669.40625 205.414062 672.777344 201.398438 672.777344 Z M 62.613281 546.199219 C 62.613281 551.824219 67.269531 556.480469 72.894531 556.480469 C 78.515625 556.480469 83.175781 551.824219 83.175781 546.199219 C 83.175781 540.578125 78.515625 535.917969 72.894531 535.917969 C 67.269531 535.917969 62.613281 540.578125 62.613281 546.199219 Z M 79.960938 546.199219 C 79.960938 550.054688 76.75 553.269531 72.894531 553.269531 C 69.039062 553.269531 65.824219 550.054688 65.824219 546.199219 C 65.824219 542.34375 69.039062 539.132812 72.894531 539.132812 C 76.75 539.132812 79.960938 542.34375 79.960938 546.199219 Z M 79.15625 228.628906 C 83.496094 228.628906 87.027344 225.097656 87.027344 220.757812 C 87.027344 216.421875 83.496094 212.886719 79.15625 212.886719 C 74.820312 212.886719 71.289062 216.421875 71.289062 220.757812 C 71.289062 225.097656 74.820312 228.628906 79.15625 228.628906 Z M 79.15625 216.101562 C 81.726562 216.101562 83.816406 218.1875 83.816406 220.757812 C 83.816406 223.328125 81.726562 225.417969 79.15625 225.417969 C 76.589844 225.417969 74.5 223.328125 74.5 220.757812 C 74.5 218.1875 76.589844 216.101562 79.15625 216.101562 Z M 380.34375 113.617188 L 380.34375 89.203125 C 380.34375 88.238281 380.984375 87.59375 381.949219 87.59375 C 382.914062 87.59375 383.554688 88.238281 383.554688 89.203125 L 383.554688 113.617188 C 383.554688 114.582031 382.914062 115.222656 381.949219 115.222656 C 380.984375 115.222656 380.34375 114.421875 380.34375 113.617188 Z M 380.34375 193.613281 L 380.34375 128.394531 C 380.34375 127.433594 380.984375 126.789062 381.949219 126.789062 C 382.914062 126.789062 383.554688 127.433594 383.554688 128.394531 L 383.554688 193.613281 C 383.554688 194.578125 382.914062 195.21875 381.949219 195.21875 C 380.984375 195.21875 380.34375 194.578125 380.34375 193.613281 Z M 403.3125 121.007812 L 403.957031 113.457031 C 403.957031 112.492188 404.757812 111.851562 405.722656 112.011719 C 406.527344 112.011719 407.328125 112.816406 407.167969 113.777344 L 406.527344 121.328125 C 406.527344 122.132812 405.722656 122.773438 404.921875 122.773438 C 404.921875 122.773438 404.757812 122.773438 404.757812 122.773438 C 403.957031 122.773438 403.3125 121.96875 403.3125 121.007812 Z M 397.210938 194.253906 L 400.582031 153.9375 C 400.582031 152.972656 401.386719 152.328125 402.351562 152.492188 C 403.3125 152.492188 403.957031 153.292969 403.796875 154.257812 L 400.421875 194.578125 C 400.421875 195.378906 399.621094 196.023438 398.816406 196.023438 C 398.816406 196.023438 398.65625 196.023438 398.65625 196.023438 C 397.851562 195.859375 397.210938 195.058594 397.210938 194.253906 Z M 438.8125 105.585938 L 444.757812 79.5625 C 444.917969 78.761719 445.882812 78.117188 446.683594 78.277344 C 447.488281 78.4375 448.128906 79.402344 447.96875 80.207031 L 442.027344 106.230469 C 441.867188 107.03125 441.222656 107.511719 440.421875 107.511719 C 440.257812 107.511719 440.257812 107.511719 440.097656 107.511719 C 439.136719 107.351562 438.652344 106.550781 438.8125 105.585938 Z M 434.636719 124.378906 L 436.242188 117.152344 C 436.402344 116.347656 437.367188 115.707031 438.171875 115.867188 C 438.972656 116.027344 439.617188 116.992188 439.457031 117.792969 L 437.851562 125.023438 C 437.6875 125.824219 437.046875 126.308594 436.242188 126.308594 C 436.082031 126.308594 436.082031 126.308594 435.921875 126.308594 C 434.957031 125.984375 434.316406 125.183594 434.636719 124.378906 Z M 428.855469 149.277344 L 431.746094 136.425781 C 431.90625 135.625 432.871094 134.980469 433.671875 135.140625 C 434.476562 135.304688 435.117188 136.265625 434.957031 137.070312 L 432.066406 149.921875 C 431.90625 150.722656 431.265625 151.207031 430.460938 151.207031 C 430.300781 151.207031 430.300781 151.207031 430.140625 151.207031 C 429.175781 151.046875 428.695312 150.082031 428.855469 149.277344 Z M 418.09375 196.824219 L 425.160156 165.5 C 425.320312 164.699219 426.285156 164.054688 427.085938 164.214844 C 427.890625 164.378906 428.53125 165.339844 428.371094 166.144531 L 421.304688 197.46875 C 421.144531 198.269531 420.5 198.753906 419.699219 198.753906 C 419.539062 198.753906 419.539062 198.753906 419.378906 198.753906 C 418.414062 198.59375 417.929688 197.789062 418.09375 196.824219 Z M 469.011719 88.71875 L 474.632812 68.960938 C 474.957031 68.160156 475.757812 67.675781 476.5625 67.835938 C 477.367188 68.160156 477.847656 68.960938 477.6875 69.765625 L 472.066406 89.523438 C 471.902344 90.164062 471.261719 90.648438 470.457031 90.648438 C 470.296875 90.648438 470.136719 90.648438 469.976562 90.648438 C 469.332031 90.488281 468.851562 89.523438 469.011719 88.71875 Z M 455.839844 135.140625 L 464.03125 106.230469 C 464.355469 105.425781 465.15625 104.945312 465.960938 105.105469 C 466.765625 105.425781 467.246094 106.230469 467.085938 107.03125 L 458.894531 135.945312 C 458.730469 136.589844 458.089844 137.070312 457.285156 137.070312 C 457.125 137.070312 456.964844 137.070312 456.804688 137.070312 C 456 136.910156 455.519531 135.945312 455.839844 135.140625 Z M 436.886719 201.324219 L 451.183594 151.046875 C 451.503906 150.242188 452.308594 149.761719 453.109375 149.921875 C 453.914062 150.242188 454.394531 151.046875 454.234375 151.847656 L 439.9375 202.125 C 439.777344 202.769531 439.136719 203.25 438.332031 203.25 C 438.171875 203.25 438.011719 203.25 437.851562 203.25 C 437.207031 203.089844 436.726562 202.125 436.886719 201.324219 Z M 515.433594 72.65625 L 529.410156 39.246094 C 529.730469 38.441406 530.695312 38.121094 531.5 38.441406 C 532.300781 38.761719 532.621094 39.726562 532.300781 40.53125 L 518.328125 73.941406 C 518.003906 74.585938 517.523438 74.90625 516.882812 74.90625 C 516.71875 74.90625 516.398438 74.90625 516.238281 74.746094 C 515.433594 74.421875 515.113281 73.460938 515.433594 72.65625 Z M 507.886719 90.648438 L 510.296875 84.703125 C 510.617188 83.902344 511.578125 83.578125 512.382812 83.902344 C 513.1875 84.222656 513.507812 85.1875 513.1875 85.988281 L 510.777344 91.933594 C 510.457031 92.574219 509.972656 92.894531 509.332031 92.894531 C 509.171875 92.894531 508.847656 92.894531 508.6875 92.734375 C 507.886719 92.414062 507.5625 91.609375 507.886719 90.648438 Z M 475.117188 169.035156 L 500.816406 107.511719 C 501.140625 106.710938 502.101562 106.390625 502.90625 106.710938 C 503.710938 107.03125 504.03125 107.996094 503.710938 108.796875 L 478.007812 170.320312 C 477.6875 170.964844 477.203125 171.285156 476.5625 171.285156 C 476.402344 171.285156 476.082031 171.285156 475.917969 171.125 C 475.117188 170.800781 474.632812 169.839844 475.117188 169.035156 Z M 458.410156 208.871094 L 467.566406 187.027344 C 467.886719 186.222656 468.851562 185.902344 469.65625 186.222656 C 470.457031 186.542969 470.78125 187.507812 470.457031 188.3125 L 461.300781 210.15625 C 460.980469 210.800781 460.5 211.121094 459.855469 211.121094 C 459.695312 211.121094 459.375 211.121094 459.214844 210.960938 C 458.410156 210.640625 458.089844 209.675781 458.410156 208.871094 Z M 500.976562 175.460938 L 504.671875 168.875 C 505.15625 168.070312 506.117188 167.910156 506.921875 168.234375 C 507.726562 168.714844 507.886719 169.679688 507.5625 170.480469 L 503.871094 177.066406 C 503.546875 177.550781 503.066406 177.871094 502.425781 177.871094 C 502.101562 177.871094 501.941406 177.871094 501.621094 177.710938 C 500.816406 177.226562 500.496094 176.105469 500.976562 175.460938 Z M 497.285156 188.3125 L 479.613281 219.152344 C 479.292969 219.636719 478.8125 219.957031 478.167969 219.957031 C 477.847656 219.957031 477.6875 219.957031 477.367188 219.796875 C 476.5625 219.3125 476.402344 218.351562 476.722656 217.546875 L 494.390625 186.707031 C 494.875 185.902344 495.839844 185.742188 496.640625 186.0625 C 497.445312 186.542969 497.765625 187.507812 497.285156 188.3125 Z M 542.582031 164.378906 C 541.777344 163.894531 541.617188 162.933594 542.101562 162.128906 L 554.628906 143.976562 C 555.113281 143.175781 556.074219 143.011719 556.878906 143.496094 C 557.679688 143.976562 557.84375 144.941406 557.359375 145.742188 L 544.832031 163.894531 C 544.507812 164.378906 544.027344 164.539062 543.546875 164.539062 C 543.222656 164.539062 542.902344 164.539062 542.582031 164.378906 Z M 532.945312 178.191406 C 533.746094 178.671875 533.90625 179.636719 533.425781 180.441406 L 515.433594 206.464844 C 515.113281 206.945312 514.632812 207.105469 514.148438 207.105469 C 513.828125 207.105469 513.507812 206.945312 513.1875 206.785156 C 512.382812 206.300781 512.222656 205.339844 512.703125 204.535156 L 530.695312 178.511719 C 531.335938 177.871094 532.300781 177.710938 532.945312 178.191406 Z M 506.117188 217.066406 C 506.921875 217.546875 507.082031 218.511719 506.601562 219.3125 L 498.40625 231.039062 C 498.085938 231.523438 497.605469 231.683594 497.125 231.683594 C 496.800781 231.683594 496.480469 231.523438 496.160156 231.359375 C 495.355469 230.878906 495.195312 229.914062 495.675781 229.113281 L 503.871094 217.386719 C 504.351562 216.742188 505.316406 216.582031 506.117188 217.066406 Z M 510.617188 240.675781 L 540.65625 206.625 C 541.296875 205.980469 542.261719 205.820312 542.902344 206.464844 C 543.546875 207.105469 543.707031 208.070312 543.0625 208.710938 L 513.027344 242.765625 C 512.703125 243.085938 512.222656 243.246094 511.742188 243.246094 C 511.417969 243.246094 510.9375 243.085938 510.617188 242.925781 C 510.132812 242.445312 509.972656 241.480469 510.617188 240.675781 Z M 605.871094 186.222656 C 605.230469 185.582031 605.390625 184.617188 606.03125 183.972656 L 612.136719 178.351562 C 612.777344 177.710938 613.742188 177.871094 614.382812 178.511719 C 615.027344 179.15625 614.867188 180.121094 614.222656 180.761719 L 608.121094 186.382812 C 607.796875 186.707031 607.476562 186.867188 606.996094 186.867188 C 606.515625 186.707031 606.191406 186.542969 605.871094 186.222656 Z M 589.003906 199.394531 L 596.234375 192.808594 C 596.875 192.167969 597.839844 192.328125 598.480469 192.96875 C 599.125 193.613281 598.964844 194.578125 598.320312 195.21875 L 591.09375 201.804688 C 590.773438 202.125 590.449219 202.285156 589.96875 202.285156 C 589.488281 202.285156 589.164062 202.125 588.84375 201.804688 C 588.203125 201 588.363281 200.039062 589.003906 199.394531 Z M 576.152344 213.371094 C 575.511719 212.726562 575.671875 211.765625 576.316406 211.121094 L 581.292969 206.464844 C 581.9375 205.820312 582.902344 205.980469 583.542969 206.625 C 584.1875 207.265625 584.023438 208.230469 583.382812 208.871094 L 578.402344 213.53125 C 578.082031 213.851562 577.761719 214.011719 577.277344 214.011719 C 576.796875 213.851562 576.476562 213.691406 576.152344 213.371094 Z M 527 256.257812 L 566.835938 219.796875 C 567.480469 219.152344 568.445312 219.3125 569.085938 219.957031 C 569.730469 220.597656 569.566406 221.5625 568.925781 222.203125 L 529.089844 258.667969 C 528.769531 258.988281 528.445312 259.152344 527.964844 259.152344 C 527.484375 259.152344 527.160156 258.988281 526.839844 258.667969 C 526.199219 257.867188 526.359375 256.902344 527 256.257812 Z M 613.261719 211.765625 L 646.027344 186.222656 C 646.671875 185.742188 647.796875 185.742188 648.277344 186.542969 C 648.761719 187.347656 648.761719 188.3125 647.957031 188.792969 L 615.1875 214.335938 C 614.867188 214.496094 614.546875 214.65625 614.222656 214.65625 C 613.742188 214.65625 613.261719 214.496094 612.9375 214.011719 C 612.457031 213.371094 612.617188 212.246094 613.261719 211.765625 Z M 566.355469 248.226562 L 599.605469 222.527344 C 600.25 222.042969 601.375 222.042969 601.855469 222.847656 C 602.335938 223.488281 602.335938 224.613281 601.535156 225.097656 L 568.28125 250.957031 C 567.960938 251.117188 567.640625 251.28125 567.320312 251.28125 C 566.835938 251.28125 566.355469 251.117188 566.035156 250.636719 C 565.550781 249.832031 565.714844 248.871094 566.355469 248.226562 Z M 554.628906 259.472656 C 555.113281 260.113281 555.113281 261.238281 554.308594 261.71875 L 540.65625 272.320312 C 540.332031 272.484375 540.011719 272.644531 539.691406 272.644531 C 539.207031 272.644531 538.726562 272.484375 538.40625 272 C 537.921875 271.359375 537.921875 270.234375 538.726562 269.753906 L 552.378906 259.152344 C 553.023438 258.667969 553.988281 258.828125 554.628906 259.472656 Z M 699.679688 198.269531 C 699.199219 197.46875 699.519531 196.503906 700.164062 196.023438 L 709.640625 190.078125 C 710.441406 189.597656 711.40625 189.917969 711.886719 190.558594 C 712.371094 191.363281 712.050781 192.328125 711.40625 192.808594 L 701.929688 198.753906 C 701.609375 198.914062 701.449219 199.074219 701.125 199.074219 C 700.484375 198.914062 700 198.753906 699.679688 198.269531 Z M 656.632812 225.097656 C 656.148438 224.292969 656.46875 223.328125 657.113281 222.847656 L 685.382812 205.179688 C 686.1875 204.695312 687.152344 205.015625 687.632812 205.660156 C 688.113281 206.464844 687.792969 207.425781 687.152344 207.910156 L 658.878906 225.578125 C 658.558594 225.738281 658.398438 225.898438 658.078125 225.898438 C 657.433594 225.898438 656.953125 225.578125 656.632812 225.097656 Z M 644.582031 232.644531 C 645.066406 233.449219 644.746094 234.414062 644.101562 234.894531 L 611.652344 255.132812 C 611.332031 255.296875 611.171875 255.457031 610.851562 255.457031 C 610.367188 255.457031 609.726562 255.132812 609.566406 254.652344 C 609.082031 253.847656 609.40625 252.886719 610.046875 252.402344 L 642.496094 232.164062 C 643.136719 231.523438 644.101562 231.84375 644.582031 232.644531 Z M 598.480469 261.398438 C 598.964844 262.203125 598.644531 263.167969 598 263.648438 L 553.503906 291.4375 C 553.183594 291.597656 553.023438 291.757812 552.703125 291.757812 C 552.21875 291.757812 551.578125 291.4375 551.417969 290.957031 C 550.933594 290.152344 551.257812 289.1875 551.898438 288.707031 L 596.394531 260.917969 C 596.875 260.433594 598 260.597656 598.480469 261.398438 Z M 594.625 294.007812 L 616.152344 284.046875 C 616.953125 283.726562 617.917969 284.046875 618.238281 284.851562 C 618.5625 285.65625 618.238281 286.617188 617.4375 286.941406 L 595.910156 296.898438 C 595.75 297.058594 595.429688 297.058594 595.269531 297.058594 C 594.625 297.058594 594.144531 296.738281 593.824219 296.097656 C 593.503906 295.292969 593.824219 294.328125 594.625 294.007812 Z M 583.0625 302.84375 L 563.945312 311.675781 C 563.785156 311.835938 563.464844 311.835938 563.304688 311.835938 C 562.660156 311.835938 562.179688 311.515625 561.859375 310.875 C 561.535156 310.070312 561.859375 309.105469 562.660156 308.785156 L 581.777344 299.949219 C 582.578125 299.628906 583.542969 299.949219 583.863281 300.753906 C 584.1875 301.558594 583.863281 302.519531 583.0625 302.84375 Z M 672.371094 296.097656 L 632.054688 309.589844 C 631.894531 309.589844 631.734375 309.75 631.574219 309.75 C 630.929688 309.75 630.289062 309.269531 630.125 308.625 C 629.804688 307.820312 630.289062 306.859375 631.089844 306.535156 L 671.410156 293.042969 C 672.210938 292.722656 673.175781 293.203125 673.496094 294.007812 C 673.65625 294.972656 673.175781 295.933594 672.371094 296.097656 Z M 569.085938 329.1875 C 568.765625 328.382812 569.246094 327.417969 570.050781 327.097656 L 618.078125 311.035156 C 618.882812 310.714844 619.847656 311.195312 620.167969 312 C 620.488281 312.800781 620.007812 313.765625 619.203125 314.085938 L 571.175781 330.148438 C 571.015625 330.148438 570.851562 330.308594 570.691406 330.308594 C 569.890625 330.308594 569.246094 329.828125 569.085938 329.1875 Z M 619.042969 336.574219 L 576.316406 348.785156 C 576.152344 348.785156 575.992188 348.785156 575.832031 348.785156 C 575.191406 348.785156 574.546875 348.300781 574.226562 347.660156 C 573.90625 346.855469 574.546875 345.890625 575.351562 345.730469 L 618.078125 333.523438 C 618.882812 333.203125 619.847656 333.84375 620.007812 334.648438 C 620.328125 335.449219 619.847656 336.414062 619.042969 336.574219 Z M 687.953125 358.101562 C 687.792969 357.296875 688.4375 356.492188 689.398438 356.332031 L 696.148438 355.53125 C 696.949219 355.367188 697.753906 356.011719 697.914062 356.976562 C 698.074219 357.777344 697.429688 358.582031 696.46875 358.742188 L 689.722656 359.546875 C 689.722656 359.546875 689.5625 359.546875 689.5625 359.546875 C 688.757812 359.546875 688.113281 358.902344 687.953125 358.101562 Z M 673.65625 361.3125 L 649.082031 364.203125 C 649.082031 364.203125 648.921875 364.203125 648.921875 364.203125 C 648.117188 364.203125 647.476562 363.5625 647.3125 362.757812 C 647.152344 361.953125 647.796875 361.152344 648.761719 360.992188 L 673.335938 358.101562 C 674.140625 357.9375 674.941406 358.582031 675.105469 359.546875 C 675.105469 360.507812 674.460938 361.3125 673.65625 361.3125 Z M 636.070312 364.042969 C 636.230469 364.847656 635.589844 365.648438 634.625 365.808594 L 626.914062 366.773438 C 626.914062 366.773438 626.753906 366.773438 626.753906 366.773438 C 625.949219 366.773438 625.308594 366.132812 625.148438 365.328125 C 624.988281 364.523438 625.628906 363.722656 626.59375 363.5625 L 634.304688 362.597656 C 635.265625 362.597656 636.070312 363.238281 636.070312 364.042969 Z M 579.847656 372.234375 C 579.046875 372.234375 578.402344 371.59375 578.242188 370.789062 C 578.082031 369.988281 578.722656 369.183594 579.6875 369.023438 L 612.9375 365.167969 C 613.742188 365.007812 614.546875 365.648438 614.707031 366.613281 C 614.867188 367.417969 614.222656 368.21875 613.261719 368.378906 L 580.007812 372.234375 C 580.007812 372.234375 580.007812 372.234375 579.847656 372.234375 Z M 668.355469 384.445312 C 668.355469 383.480469 669 382.835938 669.964844 382.835938 L 710.601562 381.710938 C 711.40625 381.710938 712.210938 382.355469 712.210938 383.320312 C 712.210938 384.28125 711.566406 384.925781 710.601562 384.925781 L 669.964844 386.050781 C 669.160156 385.890625 668.355469 385.246094 668.355469 384.445312 Z M 655.988281 386.371094 L 629.484375 387.011719 C 628.679688 387.011719 627.878906 386.371094 627.878906 385.40625 C 627.878906 384.445312 628.519531 383.800781 629.484375 383.800781 L 655.988281 383.160156 C 656.792969 383.160156 657.59375 383.800781 657.59375 384.765625 C 657.59375 385.566406 656.953125 386.371094 655.988281 386.371094 Z M 615.027344 387.335938 L 581.132812 388.296875 C 580.332031 388.296875 579.527344 387.65625 579.527344 386.691406 C 579.527344 385.730469 580.171875 385.085938 581.132812 385.085938 L 615.027344 384.121094 C 615.832031 384.121094 616.632812 384.765625 616.632812 385.730469 C 616.632812 386.691406 615.832031 387.335938 615.027344 387.335938 Z M 767.144531 423.15625 C 767.144531 423.960938 766.34375 424.601562 765.539062 424.601562 C 765.539062 424.601562 765.378906 424.601562 765.378906 424.601562 L 755.902344 423.960938 C 754.9375 423.960938 754.296875 423.15625 754.457031 422.191406 C 754.457031 421.226562 755.257812 420.585938 756.222656 420.746094 L 765.699219 421.390625 C 766.664062 421.550781 767.304688 422.351562 767.144531 423.15625 Z M 742.730469 421.390625 C 742.730469 422.191406 741.925781 422.835938 741.125 422.835938 C 741.125 422.835938 740.960938 422.835938 740.960938 422.835938 L 669.804688 417.535156 C 668.839844 417.535156 668.195312 416.730469 668.355469 415.765625 C 668.355469 414.804688 669.160156 414.160156 670.125 414.320312 L 741.285156 419.621094 C 742.085938 419.621094 742.730469 420.425781 742.730469 421.390625 Z M 653.257812 416.25 L 603.621094 412.554688 C 602.660156 412.554688 602.015625 411.75 602.175781 410.789062 C 602.175781 409.824219 602.980469 409.179688 603.945312 409.339844 L 653.578125 413.035156 C 654.542969 413.035156 655.183594 413.839844 655.023438 414.804688 C 655.023438 415.605469 654.222656 416.25 653.257812 416.25 C 653.417969 416.25 653.257812 416.25 653.257812 416.25 Z M 578.886719 409.019531 C 578.886719 408.054688 579.6875 407.414062 580.652344 407.574219 L 590.289062 408.21875 C 591.253906 408.21875 591.894531 409.019531 591.734375 409.984375 C 591.734375 410.789062 590.933594 411.429688 590.128906 411.429688 C 590.128906 411.429688 589.96875 411.429688 589.96875 411.429688 L 580.332031 410.789062 C 579.527344 410.625 578.722656 409.824219 578.886719 409.019531 Z M 622.09375 442.914062 C 621.292969 442.753906 620.648438 441.789062 620.96875 440.984375 C 621.292969 440.183594 622.09375 439.539062 622.898438 439.863281 L 638.640625 443.554688 C 639.441406 443.71875 640.085938 444.679688 639.765625 445.484375 C 639.605469 446.285156 638.960938 446.769531 638.160156 446.769531 C 637.996094 446.769531 637.835938 446.769531 637.835938 446.769531 Z M 604.746094 438.738281 L 577.117188 432.152344 C 576.316406 431.992188 575.671875 431.027344 575.992188 430.222656 C 576.316406 429.421875 577.117188 428.777344 577.921875 429.097656 L 605.550781 435.683594 C 606.351562 435.847656 606.996094 436.808594 606.675781 437.613281 C 606.515625 438.414062 605.871094 438.898438 605.066406 438.898438 C 604.90625 438.898438 604.90625 438.898438 604.746094 438.738281 Z M 666.910156 483.714844 L 656.46875 480.179688 C 655.667969 479.859375 655.183594 479.054688 655.507812 478.09375 C 655.828125 477.289062 656.632812 476.808594 657.59375 477.128906 L 668.035156 480.664062 C 668.839844 480.984375 669.320312 481.785156 669 482.75 C 668.839844 483.394531 668.195312 483.875 667.554688 483.875 C 667.234375 483.714844 667.070312 483.714844 666.910156 483.714844 Z M 594.464844 457.210938 C 594.789062 456.40625 595.589844 455.925781 596.554688 456.246094 L 640.566406 471.34375 C 641.371094 471.667969 641.851562 472.46875 641.53125 473.433594 C 641.371094 474.078125 640.726562 474.558594 640.085938 474.558594 C 639.925781 474.558594 639.765625 474.558594 639.605469 474.398438 L 595.589844 459.296875 C 594.625 458.816406 594.144531 458.011719 594.464844 457.210938 Z M 571.335938 449.179688 C 571.65625 448.375 572.460938 447.894531 573.421875 448.214844 L 582.902344 451.425781 C 583.703125 451.75 584.1875 452.550781 583.863281 453.515625 C 583.703125 454.15625 583.0625 454.640625 582.417969 454.640625 C 582.257812 454.640625 582.097656 454.640625 581.9375 454.480469 L 572.460938 451.265625 C 571.496094 450.945312 571.015625 449.980469 571.335938 449.179688 Z M 609.082031 489.015625 L 565.070312 471.023438 C 564.265625 470.703125 563.785156 469.738281 564.265625 468.9375 C 564.589844 468.132812 565.550781 467.652344 566.355469 468.132812 L 610.367188 486.125 C 611.171875 486.445312 611.652344 487.410156 611.171875 488.210938 C 610.851562 488.855469 610.367188 489.175781 609.726562 489.175781 C 609.566406 489.175781 609.246094 489.175781 609.082031 489.015625 Z M 657.113281 549.089844 L 607.476562 519.535156 C 606.675781 519.054688 606.515625 518.089844 606.996094 517.285156 C 607.476562 516.484375 608.441406 516.324219 609.246094 516.804688 L 658.878906 546.359375 C 659.683594 546.84375 659.84375 547.804688 659.363281 548.609375 C 659.039062 549.089844 658.558594 549.414062 657.914062 549.414062 C 657.59375 549.253906 657.433594 549.253906 657.113281 549.089844 Z M 558.003906 486.125 L 594.625 507.96875 C 595.429688 508.453125 595.589844 509.414062 595.109375 510.21875 C 594.789062 510.699219 594.304688 511.023438 593.664062 511.023438 C 593.34375 511.023438 593.019531 511.023438 592.859375 510.859375 L 556.234375 489.015625 C 555.433594 488.535156 555.273438 487.570312 555.753906 486.765625 C 556.234375 485.964844 557.199219 485.800781 558.003906 486.125 Z M 639.441406 570.132812 C 638.640625 569.652344 638.480469 568.6875 638.960938 567.886719 C 639.441406 567.082031 640.40625 566.921875 641.210938 567.402344 L 660.808594 580.898438 C 661.609375 581.378906 661.769531 582.34375 661.289062 583.144531 C 660.96875 583.628906 660.484375 583.789062 660.003906 583.789062 C 659.683594 583.789062 659.363281 583.628906 659.039062 583.46875 Z M 622.417969 554.554688 L 628.839844 558.890625 C 629.644531 559.371094 629.804688 560.335938 629.324219 561.140625 C 629.003906 561.621094 628.519531 561.78125 628.039062 561.78125 C 627.71875 561.78125 627.394531 561.621094 627.074219 561.460938 L 620.648438 557.125 C 619.847656 556.640625 619.6875 555.675781 620.167969 554.875 C 620.808594 554.230469 621.773438 554.070312 622.417969 554.554688 Z M 604.105469 545.878906 L 545.957031 505.882812 C 545.152344 505.398438 544.992188 504.4375 545.472656 503.632812 C 545.957031 502.828125 546.917969 502.667969 547.722656 503.152344 L 605.871094 543.148438 C 606.675781 543.628906 606.835938 544.59375 606.351562 545.398438 C 606.03125 545.878906 605.550781 546.039062 605.066406 546.039062 C 604.746094 546.039062 604.425781 546.039062 604.105469 545.878906 Z M 676.710938 642.257812 C 677.351562 642.902344 677.511719 643.863281 676.871094 644.507812 C 676.550781 644.828125 676.066406 644.988281 675.585938 644.988281 C 675.265625 644.988281 674.78125 644.828125 674.460938 644.667969 L 653.738281 626.675781 C 653.097656 626.035156 652.9375 625.070312 653.578125 624.429688 C 654.222656 623.785156 655.183594 623.625 655.828125 624.265625 Z M 640.246094 610.613281 C 640.890625 611.257812 641.050781 612.21875 640.40625 612.863281 C 640.085938 613.183594 639.605469 613.34375 639.121094 613.34375 C 638.800781 613.34375 638.320312 613.183594 637.996094 613.023438 L 597.679688 578.003906 C 597.035156 577.363281 596.875 576.398438 597.519531 575.757812 C 598.160156 575.113281 599.125 574.953125 599.765625 575.597656 Z M 586.917969 564.511719 C 587.558594 565.15625 587.71875 566.117188 587.078125 566.761719 C 586.757812 567.082031 586.273438 567.242188 585.792969 567.242188 C 585.472656 567.242188 584.988281 567.082031 584.667969 566.921875 L 552.21875 538.8125 C 551.578125 538.167969 551.417969 537.203125 552.058594 536.5625 C 552.703125 535.917969 553.664062 535.757812 554.308594 536.402344 Z M 533.265625 522.265625 C 532.621094 521.625 532.460938 520.660156 533.105469 520.015625 C 533.746094 519.375 534.710938 519.214844 535.355469 519.855469 L 542.902344 526.441406 C 543.546875 527.085938 543.707031 528.046875 543.0625 528.691406 C 542.742188 529.011719 542.261719 529.171875 541.777344 529.171875 C 541.457031 529.171875 540.976562 529.011719 540.65625 528.851562 Z M 541.941406 565.957031 C 541.296875 565.316406 541.457031 564.351562 542.101562 563.710938 C 542.742188 563.066406 543.707031 563.226562 544.347656 563.871094 L 558.484375 579.613281 C 559.128906 580.253906 558.964844 581.21875 558.324219 581.859375 C 558.003906 582.183594 557.679688 582.34375 557.199219 582.34375 C 556.71875 582.34375 556.394531 582.183594 556.074219 581.859375 Z M 535.515625 554.070312 C 536.15625 554.714844 535.996094 555.675781 535.355469 556.320312 C 535.03125 556.640625 534.710938 556.800781 534.230469 556.800781 C 533.746094 556.800781 533.425781 556.640625 533.105469 556.320312 L 517.523438 538.8125 C 516.882812 538.167969 517.042969 537.203125 517.683594 536.5625 C 518.328125 535.917969 519.289062 536.082031 519.933594 536.722656 Z M 569.890625 633.746094 C 570.371094 634.386719 570.371094 635.511719 569.566406 635.992188 C 569.246094 636.152344 568.925781 636.316406 568.605469 636.316406 C 568.121094 636.316406 567.640625 636.152344 567.320312 635.671875 L 560.574219 626.835938 C 560.089844 626.195312 560.089844 625.070312 560.894531 624.589844 C 561.535156 624.105469 562.660156 624.105469 563.144531 624.910156 Z M 552.058594 615.753906 L 540.171875 600.332031 C 539.691406 599.691406 539.691406 598.566406 540.492188 598.085938 C 541.136719 597.601562 542.261719 597.601562 542.742188 598.40625 L 554.628906 613.828125 C 555.113281 614.46875 555.113281 615.59375 554.308594 616.074219 C 553.988281 616.234375 553.664062 616.398438 553.34375 616.398438 C 552.863281 616.398438 552.378906 616.234375 552.058594 615.753906 Z M 529.089844 586.199219 L 502.261719 551.5 C 501.78125 550.859375 501.78125 549.734375 502.585938 549.253906 C 503.226562 548.769531 504.351562 548.769531 504.832031 549.574219 L 531.660156 584.269531 C 532.140625 584.914062 532.140625 586.035156 531.335938 586.519531 C 531.015625 586.679688 530.695312 586.839844 530.375 586.839844 C 529.890625 586.839844 529.410156 586.679688 529.089844 586.199219 Z M 508.207031 600.011719 L 486.039062 562.585938 C 485.558594 561.78125 485.878906 560.816406 486.519531 560.335938 C 487.324219 559.855469 488.289062 560.175781 488.769531 560.816406 L 510.9375 598.246094 C 511.417969 599.046875 511.097656 600.011719 510.457031 600.492188 C 510.132812 600.65625 509.972656 600.65625 509.652344 600.65625 C 509.171875 600.816406 508.527344 600.492188 508.207031 600.011719 Z M 515.433594 676.152344 C 515.757812 676.953125 515.433594 677.917969 514.632812 678.238281 C 514.472656 678.402344 514.148438 678.402344 513.988281 678.402344 C 513.347656 678.402344 512.703125 678.078125 512.542969 677.4375 L 499.210938 647.078125 C 498.890625 646.273438 499.210938 645.308594 500.015625 644.988281 C 500.816406 644.667969 501.78125 644.988281 502.101562 645.792969 Z M 494.070312 627.640625 L 496.960938 634.066406 C 497.285156 634.871094 496.960938 635.832031 496.160156 636.152344 C 496 636.316406 495.675781 636.316406 495.515625 636.316406 C 494.875 636.316406 494.230469 635.992188 494.070312 635.351562 L 491.179688 628.925781 C 490.859375 628.121094 491.179688 627.160156 491.984375 626.835938 C 492.785156 626.355469 493.75 626.835938 494.070312 627.640625 Z M 488.289062 618.324219 C 488.128906 618.484375 487.804688 618.484375 487.644531 618.484375 C 487.003906 618.484375 486.359375 618.164062 486.199219 617.519531 L 476.402344 595.355469 C 476.082031 594.550781 476.402344 593.585938 477.203125 593.265625 C 478.007812 592.945312 478.972656 593.265625 479.292969 594.070312 L 489.089844 616.234375 C 489.414062 617.039062 489.089844 618.003906 488.289062 618.324219 Z M 466.601562 573.027344 C 466.28125 572.222656 466.601562 571.257812 467.40625 570.9375 C 468.210938 570.617188 469.171875 570.9375 469.496094 571.742188 L 473.832031 581.539062 C 474.152344 582.34375 473.832031 583.304688 473.027344 583.628906 C 472.867188 583.789062 472.546875 583.789062 472.386719 583.789062 C 471.742188 583.789062 471.101562 583.46875 470.941406 582.824219 Z M 498.085938 697.996094 C 498.410156 698.800781 497.925781 699.765625 497.125 700.085938 C 496.960938 700.085938 496.800781 700.246094 496.480469 700.246094 C 495.839844 700.246094 495.195312 699.925781 495.035156 699.28125 L 487.96875 681.132812 C 487.644531 680.328125 488.128906 679.363281 488.929688 679.042969 C 489.734375 678.722656 490.699219 679.203125 491.019531 680.007812 Z M 486.199219 667.316406 C 486.519531 668.121094 486.039062 669.082031 485.238281 669.40625 C 485.074219 669.40625 484.914062 669.566406 484.59375 669.566406 C 483.953125 669.566406 483.308594 669.246094 483.148438 668.601562 L 462.585938 615.59375 C 462.265625 614.789062 462.746094 613.828125 463.550781 613.503906 C 464.355469 613.183594 465.316406 613.664062 465.640625 614.46875 Z M 460.980469 601.617188 C 461.300781 602.421875 460.820312 603.386719 460.015625 603.707031 C 459.855469 603.707031 459.695312 603.867188 459.375 603.867188 C 458.730469 603.867188 458.089844 603.546875 457.929688 602.902344 L 449.253906 580.414062 C 448.933594 579.613281 449.414062 578.648438 450.21875 578.328125 C 451.023438 578.003906 451.984375 578.488281 452.308594 579.289062 Z M 471.261719 749.078125 C 471.421875 749.882812 470.941406 750.84375 470.136719 751.007812 C 469.976562 751.007812 469.816406 751.007812 469.816406 751.007812 C 469.011719 751.007812 468.371094 750.523438 468.210938 749.722656 L 461.460938 722.414062 C 461.300781 721.609375 461.785156 720.648438 462.585938 720.484375 C 463.390625 720.324219 464.355469 720.808594 464.515625 721.609375 Z M 459.695312 701.691406 C 459.855469 702.496094 459.375 703.460938 458.570312 703.621094 C 458.410156 703.621094 458.25 703.621094 458.25 703.621094 C 457.445312 703.621094 456.804688 703.136719 456.644531 702.335938 L 448.773438 670.367188 C 448.613281 669.566406 449.09375 668.601562 449.898438 668.441406 C 450.699219 668.28125 451.664062 668.761719 451.824219 669.566406 Z M 448.453125 655.429688 C 448.613281 656.234375 448.128906 657.195312 447.328125 657.359375 C 447.167969 657.359375 447.003906 657.359375 447.003906 657.359375 C 446.203125 657.359375 445.558594 656.875 445.398438 656.074219 L 444.113281 650.609375 C 443.953125 649.808594 444.4375 648.84375 445.238281 648.683594 C 446.042969 648.523438 447.007812 649.003906 447.167969 649.808594 Z M 442.988281 640.171875 C 442.828125 640.171875 442.667969 640.171875 442.667969 640.171875 C 441.867188 640.171875 441.222656 639.6875 441.0625 638.886719 L 428.210938 586.519531 C 428.050781 585.714844 428.53125 584.75 429.335938 584.589844 C 430.140625 584.429688 431.101562 584.914062 431.265625 585.714844 L 444.113281 638.082031 C 444.4375 639.046875 443.953125 640.007812 442.988281 640.171875 Z M 414.71875 625.550781 L 416.644531 648.523438 C 416.644531 649.488281 416.003906 650.128906 415.199219 650.289062 C 415.199219 650.289062 415.039062 650.289062 415.039062 650.289062 C 414.238281 650.289062 413.433594 649.648438 413.433594 648.84375 L 411.507812 625.875 C 411.507812 624.910156 412.148438 624.265625 412.953125 624.105469 C 413.914062 623.945312 414.558594 624.589844 414.71875 625.550781 Z M 411.828125 611.898438 C 411.023438 611.898438 410.222656 611.257812 410.222656 610.453125 L 408.453125 589.410156 C 408.453125 588.445312 409.097656 587.804688 409.898438 587.644531 C 410.863281 587.484375 411.507812 588.285156 411.667969 589.089844 L 413.433594 610.132812 C 413.433594 611.09375 412.792969 611.898438 411.828125 611.898438 Z M 390.785156 681.613281 L 391.105469 696.710938 C 391.105469 697.675781 390.464844 698.320312 389.5 698.320312 C 388.695312 698.320312 387.894531 697.675781 387.894531 696.710938 L 387.570312 681.613281 C 387.570312 680.648438 388.214844 680.007812 389.179688 680.007812 C 390.140625 680.007812 390.785156 680.808594 390.785156 681.613281 Z M 387.25 665.871094 L 386.125 616.878906 C 386.125 615.914062 386.769531 615.273438 387.734375 615.273438 C 388.535156 615.273438 389.339844 615.914062 389.339844 616.878906 L 390.464844 665.871094 C 390.464844 666.835938 389.820312 667.476562 388.855469 667.476562 C 387.894531 667.476562 387.25 666.835938 387.25 665.871094 Z M 385.804688 602.742188 L 385.644531 591.980469 C 385.644531 591.015625 386.285156 590.375 387.25 590.375 C 388.214844 590.375 388.855469 591.015625 388.855469 591.980469 L 389.019531 602.742188 C 389.019531 603.707031 388.375 604.347656 387.410156 604.347656 C 386.609375 604.347656 385.964844 603.707031 385.804688 602.742188 Z M 369.742188 591.980469 L 366.367188 631.976562 C 366.367188 632.78125 365.566406 633.421875 364.761719 633.421875 C 364.761719 633.421875 364.601562 633.421875 364.601562 633.421875 C 363.636719 633.421875 362.996094 632.621094 363.15625 631.65625 L 366.527344 591.660156 C 366.527344 590.695312 367.332031 590.054688 368.296875 590.214844 C 369.261719 590.375 369.902344 591.175781 369.742188 591.980469 Z M 328.621094 680.808594 L 322.835938 706.671875 C 322.675781 707.476562 322.035156 707.957031 321.230469 707.957031 C 321.070312 707.957031 321.070312 707.957031 320.910156 707.957031 C 320.105469 707.796875 319.464844 706.832031 319.625 706.027344 L 325.40625 680.167969 C 325.566406 679.363281 326.53125 678.722656 327.335938 678.882812 C 328.136719 679.042969 328.941406 680.007812 328.621094 680.808594 Z M 336.167969 647.078125 L 331.511719 668.28125 C 331.351562 669.082031 330.707031 669.566406 329.90625 669.566406 C 329.746094 669.566406 329.746094 669.566406 329.582031 669.566406 C 328.78125 669.40625 328.136719 668.441406 328.296875 667.636719 L 332.957031 646.433594 C 333.117188 645.632812 334.082031 644.988281 334.882812 645.148438 C 335.847656 645.308594 336.492188 646.113281 336.167969 647.078125 Z M 349.019531 589.730469 L 339.863281 630.371094 C 339.703125 631.175781 339.0625 631.65625 338.257812 631.65625 C 338.097656 631.65625 338.097656 631.65625 337.9375 631.65625 C 337.132812 631.496094 336.492188 630.53125 336.652344 629.730469 L 345.808594 589.089844 C 345.96875 588.285156 346.933594 587.644531 347.734375 587.804688 C 348.699219 587.964844 349.179688 588.769531 349.019531 589.730469 Z M 302.917969 680.328125 L 295.046875 709.082031 C 294.886719 709.722656 294.246094 710.207031 293.441406 710.207031 C 293.28125 710.207031 293.121094 710.207031 292.960938 710.207031 C 292.15625 710.046875 291.675781 709.082031 291.835938 708.277344 L 299.707031 679.523438 C 299.867188 678.722656 300.832031 678.238281 301.632812 678.402344 C 302.757812 678.5625 303.238281 679.523438 302.917969 680.328125 Z M 312.234375 647.078125 L 307.257812 665.390625 C 307.09375 666.03125 306.453125 666.515625 305.648438 666.515625 C 305.488281 666.515625 305.328125 666.515625 305.167969 666.515625 C 304.363281 666.351562 303.882812 665.390625 304.042969 664.585938 L 309.023438 646.273438 C 309.183594 645.472656 310.148438 644.988281 310.949219 645.148438 C 311.914062 645.308594 312.394531 646.113281 312.234375 647.078125 Z M 317.535156 627.800781 L 315.769531 634.386719 C 315.609375 635.03125 314.964844 635.511719 314.164062 635.511719 C 314.003906 635.511719 313.839844 635.511719 313.679688 635.511719 C 312.878906 635.351562 312.394531 634.386719 312.558594 633.585938 L 314.324219 627 C 314.484375 626.195312 315.449219 625.714844 316.25 625.875 C 317.214844 626.035156 317.695312 626.835938 317.535156 627.800781 Z M 319.785156 619.449219 C 319.625 620.089844 318.980469 620.574219 318.179688 620.574219 C 318.019531 620.574219 317.859375 620.574219 317.695312 620.574219 C 316.894531 620.414062 316.410156 619.449219 316.574219 618.644531 L 326.050781 584.269531 C 326.210938 583.46875 327.175781 582.984375 327.976562 583.144531 C 328.78125 583.304688 329.261719 584.269531 329.101562 585.074219 Z M 257.300781 703.621094 L 248.785156 724.664062 C 248.464844 725.304688 247.984375 725.625 247.339844 725.625 C 247.179688 725.625 246.859375 725.625 246.699219 725.464844 C 245.894531 725.144531 245.414062 724.179688 245.734375 723.378906 L 254.246094 702.335938 C 254.570312 701.53125 255.53125 701.050781 256.335938 701.371094 C 257.300781 701.851562 257.621094 702.65625 257.300781 703.621094 Z M 279.628906 648.363281 L 262.761719 690.125 C 262.441406 690.769531 261.957031 691.089844 261.316406 691.089844 C 261.15625 691.089844 260.832031 691.089844 260.671875 690.929688 C 259.871094 690.609375 259.386719 689.644531 259.707031 688.839844 L 276.574219 647.078125 C 276.894531 646.273438 277.859375 645.792969 278.664062 646.113281 C 279.628906 646.59375 279.949219 647.558594 279.628906 648.363281 Z M 301.152344 595.355469 L 283.160156 639.6875 C 282.839844 640.332031 282.359375 640.652344 281.714844 640.652344 C 281.554688 640.652344 281.234375 640.652344 281.074219 640.492188 C 280.269531 640.171875 279.789062 639.207031 280.109375 638.402344 L 298.101562 593.90625 C 298.421875 593.105469 299.386719 592.621094 300.1875 592.945312 C 301.152344 593.585938 301.632812 594.390625 301.152344 595.355469 Z M 304.363281 585.074219 C 304.203125 585.074219 303.882812 585.074219 303.722656 584.914062 C 302.917969 584.589844 302.4375 583.628906 302.757812 582.824219 L 305.328125 576.71875 C 305.648438 575.917969 306.613281 575.433594 307.417969 575.757812 C 308.21875 576.078125 308.703125 577.042969 308.378906 577.84375 L 305.808594 583.949219 C 305.488281 584.75 304.847656 585.074219 304.363281 585.074219 Z M 259.546875 618.324219 C 259.226562 618.324219 259.066406 618.324219 258.746094 618.164062 C 257.941406 617.679688 257.78125 616.71875 258.101562 615.914062 L 270.148438 595.355469 C 270.632812 594.550781 271.59375 594.390625 272.398438 594.710938 C 273.203125 595.191406 273.363281 596.15625 273.042969 596.960938 L 260.992188 617.519531 C 260.671875 618.003906 260.03125 618.324219 259.546875 618.324219 Z M 276.253906 588.125 C 275.449219 587.644531 275.289062 586.679688 275.609375 585.875 L 286.375 567.5625 C 286.855469 566.761719 287.820312 566.601562 288.621094 566.921875 C 289.425781 567.402344 289.585938 568.367188 289.265625 569.171875 L 278.503906 587.484375 C 278.179688 587.964844 277.699219 588.285156 277.058594 588.285156 C 276.734375 588.285156 276.414062 588.285156 276.253906 588.125 Z M 230.472656 614.308594 C 231.117188 614.789062 231.277344 615.914062 230.792969 616.558594 L 215.375 637.601562 C 215.054688 638.082031 214.570312 638.242188 214.089844 638.242188 C 213.769531 638.242188 213.445312 638.082031 213.125 637.921875 C 212.484375 637.4375 212.320312 636.316406 212.804688 635.671875 L 228.226562 614.628906 C 228.707031 613.988281 229.671875 613.828125 230.472656 614.308594 Z M 263.5625 572.0625 L 237.542969 607.5625 C 237.21875 608.042969 236.738281 608.203125 236.257812 608.203125 C 235.933594 608.203125 235.613281 608.042969 235.292969 607.882812 C 234.648438 607.402344 234.488281 606.277344 234.972656 605.632812 L 260.992188 570.132812 C 261.476562 569.492188 262.601562 569.332031 263.242188 569.8125 C 263.886719 570.296875 264.046875 571.417969 263.5625 572.0625 Z M 269.347656 563.226562 C 269.023438 563.226562 268.703125 563.066406 268.382812 562.90625 C 267.742188 562.425781 267.578125 561.300781 268.0625 560.65625 L 270.308594 557.605469 C 270.792969 556.960938 271.917969 556.800781 272.558594 557.285156 C 273.203125 557.765625 273.363281 558.890625 272.878906 559.53125 L 270.632812 562.585938 C 270.308594 562.90625 269.828125 563.226562 269.347656 563.226562 Z M 225.332031 576.238281 L 253.285156 544.753906 C 253.925781 544.113281 254.890625 543.953125 255.53125 544.59375 C 256.175781 545.238281 256.335938 546.199219 255.691406 546.84375 L 227.742188 578.328125 C 227.421875 578.648438 226.941406 578.808594 226.617188 578.808594 C 226.296875 578.808594 225.816406 578.648438 225.492188 578.328125 C 224.851562 577.84375 224.851562 576.882812 225.332031 576.238281 Z M 134.578125 623.144531 C 135.21875 623.785156 135.058594 624.75 134.414062 625.390625 L 129.757812 629.566406 C 129.4375 629.890625 129.113281 630.050781 128.632812 630.050781 C 128.152344 630.050781 127.828125 629.890625 127.507812 629.566406 C 126.867188 628.925781 127.027344 627.960938 127.667969 627.320312 L 132.328125 623.144531 C 132.96875 622.5 133.933594 622.5 134.578125 623.144531 Z M 164.773438 595.515625 C 165.417969 596.15625 165.257812 597.121094 164.613281 597.761719 L 152.085938 609.328125 C 151.765625 609.648438 151.441406 609.8125 150.960938 609.8125 C 150.480469 609.8125 150.15625 609.648438 149.835938 609.328125 C 149.195312 608.6875 149.355469 607.722656 149.996094 607.078125 L 162.527344 595.515625 C 163.167969 594.871094 164.132812 594.871094 164.773438 595.515625 Z M 204.128906 561.621094 L 176.660156 586.839844 C 176.339844 587.160156 176.019531 587.320312 175.539062 587.320312 C 175.054688 587.320312 174.734375 587.160156 174.414062 586.839844 C 173.769531 586.199219 173.929688 585.234375 174.574219 584.589844 L 202.042969 559.371094 C 202.683594 558.730469 203.648438 558.890625 204.289062 559.53125 C 204.773438 560.015625 204.773438 560.976562 204.128906 561.621094 Z M 212.804688 551.339844 C 212.160156 550.699219 212.320312 549.734375 212.964844 549.089844 L 235.773438 528.046875 C 236.417969 527.40625 237.378906 527.566406 238.023438 528.210938 C 238.664062 528.851562 238.503906 529.816406 237.863281 530.457031 L 215.054688 551.5 C 214.730469 551.824219 214.410156 551.984375 213.929688 551.984375 C 213.605469 551.824219 213.125 551.660156 212.804688 551.339844 Z M 122.6875 587.644531 C 123.171875 588.445312 123.011719 589.410156 122.207031 589.890625 L 117.386719 593.265625 C 117.066406 593.425781 116.746094 593.585938 116.425781 593.585938 C 115.941406 593.585938 115.460938 593.265625 115.140625 592.945312 C 114.65625 592.140625 114.820312 591.175781 115.621094 590.695312 L 120.441406 587.320312 C 121.242188 586.839844 122.207031 587 122.6875 587.644531 Z M 132.648438 580.734375 C 132.167969 579.933594 132.328125 578.96875 133.128906 578.488281 L 160.4375 559.53125 C 161.242188 559.050781 162.203125 559.210938 162.6875 560.015625 C 163.167969 560.816406 163.007812 561.78125 162.203125 562.261719 L 134.898438 581.21875 C 134.578125 581.378906 134.253906 581.539062 133.933594 581.539062 C 133.453125 581.378906 132.96875 581.21875 132.648438 580.734375 Z M 173.929688 553.75 C 173.449219 553.75 172.96875 553.429688 172.644531 553.109375 C 172.164062 552.304688 172.324219 551.339844 173.128906 550.859375 L 206.058594 528.046875 C 206.859375 527.566406 207.824219 527.726562 208.304688 528.53125 C 208.789062 529.332031 208.628906 530.296875 207.824219 530.78125 L 174.894531 553.429688 C 174.574219 553.589844 174.253906 553.75 173.929688 553.75 Z M 218.105469 523.070312 C 217.625 523.070312 217.140625 522.746094 216.820312 522.425781 C 216.339844 521.625 216.5 520.660156 217.300781 520.179688 L 224.851562 514.878906 C 225.65625 514.394531 226.617188 514.554688 227.101562 515.359375 C 227.582031 516.160156 227.421875 517.125 226.617188 517.609375 L 219.070312 522.910156 C 218.746094 523.070312 218.425781 523.070312 218.105469 523.070312 Z M 66.46875 588.605469 C 66.949219 589.410156 66.628906 590.375 65.984375 590.855469 L 57.953125 595.675781 C 57.632812 595.835938 57.472656 595.835938 57.152344 595.835938 C 56.667969 595.835938 56.027344 595.515625 55.707031 595.03125 C 55.222656 594.230469 55.546875 593.265625 56.1875 592.785156 L 64.21875 587.964844 C 65.023438 587.644531 65.984375 587.804688 66.46875 588.605469 Z M 126.707031 554.230469 L 74.660156 585.554688 C 74.339844 585.714844 74.179688 585.714844 73.855469 585.714844 C 73.375 585.714844 72.734375 585.394531 72.410156 584.914062 C 71.929688 584.109375 72.25 583.144531 72.894531 582.664062 L 124.9375 551.339844 C 125.742188 550.859375 126.707031 551.179688 127.1875 551.824219 C 127.667969 552.785156 127.507812 553.75 126.707031 554.230469 Z M 172.003906 527.085938 L 142.285156 544.914062 C 141.964844 545.074219 141.804688 545.074219 141.484375 545.074219 C 141 545.074219 140.359375 544.753906 140.039062 544.273438 C 139.554688 543.46875 139.878906 542.503906 140.519531 542.023438 L 170.238281 524.195312 C 171.039062 523.710938 172.003906 524.03125 172.484375 524.675781 C 172.96875 525.640625 172.644531 526.601562 172.003906 527.085938 Z M 181.960938 517.285156 L 213.125 498.492188 C 213.929688 498.011719 214.890625 498.332031 215.375 498.972656 C 215.855469 499.777344 215.535156 500.742188 214.890625 501.222656 L 183.570312 520.015625 C 183.246094 520.179688 183.085938 520.179688 182.765625 520.179688 C 182.285156 520.179688 181.640625 519.855469 181.320312 519.375 C 181 518.730469 181.160156 517.769531 181.960938 517.285156 Z M 171.359375 498.171875 L 137.949219 513.753906 C 137.789062 513.914062 137.46875 513.914062 137.308594 513.914062 C 136.664062 513.914062 136.183594 513.59375 135.859375 512.949219 C 135.539062 512.144531 135.859375 511.183594 136.664062 510.859375 L 170.074219 495.28125 C 170.878906 494.957031 171.84375 495.28125 172.164062 496.082031 C 172.484375 496.886719 172.164062 497.851562 171.359375 498.171875 Z M 205.574219 480.5 C 205.898438 481.304688 205.574219 482.269531 204.773438 482.589844 L 183.410156 492.550781 C 183.246094 492.710938 182.925781 492.710938 182.765625 492.710938 C 182.125 492.710938 181.640625 492.386719 181.320312 491.746094 C 181 490.941406 181.320312 489.980469 182.125 489.65625 L 203.488281 479.699219 C 204.289062 479.214844 205.253906 479.699219 205.574219 480.5 Z M 122.6875 487.085938 L 94.578125 496.886719 C 94.417969 496.886719 94.257812 497.046875 94.097656 497.046875 C 93.453125 497.046875 92.8125 496.566406 92.652344 495.921875 C 92.328125 495.121094 92.8125 494.15625 93.613281 493.835938 L 121.726562 484.035156 C 122.527344 483.714844 123.492188 484.195312 123.8125 485 C 123.972656 485.964844 123.652344 486.765625 122.6875 487.085938 Z M 162.6875 471.507812 C 163.007812 472.308594 162.527344 473.273438 161.722656 473.59375 L 134.738281 482.910156 C 134.578125 482.910156 134.414062 483.070312 134.253906 483.070312 C 133.613281 483.070312 132.96875 482.589844 132.808594 481.949219 C 132.488281 481.144531 132.96875 480.179688 133.773438 479.859375 L 160.757812 470.542969 C 161.402344 470.222656 162.367188 470.703125 162.6875 471.507812 Z M 173.289062 469.417969 C 172.644531 469.417969 172.003906 468.9375 171.84375 468.292969 C 171.523438 467.492188 172.003906 466.527344 172.808594 466.207031 L 194.171875 458.816406 C 194.972656 458.496094 195.9375 458.976562 196.257812 459.78125 C 196.582031 460.582031 196.097656 461.546875 195.296875 461.867188 L 173.929688 469.257812 C 173.609375 469.417969 173.449219 469.417969 173.289062 469.417969 Z M 189.191406 442.753906 L 141.804688 455.765625 C 141.644531 455.765625 141.484375 455.765625 141.324219 455.765625 C 140.679688 455.765625 140.039062 455.28125 139.714844 454.640625 C 139.554688 453.835938 140.039062 452.871094 140.839844 452.710938 L 188.226562 439.699219 C 189.03125 439.539062 189.996094 440.023438 190.15625 440.824219 C 190.476562 441.628906 189.996094 442.59375 189.191406 442.753906 Z M 90.882812 430.707031 L 69.039062 433.4375 C 69.039062 433.4375 68.878906 433.4375 68.878906 433.4375 C 68.074219 433.4375 67.433594 432.792969 67.269531 431.992188 C 67.109375 431.1875 67.753906 430.382812 68.71875 430.222656 L 90.5625 427.492188 C 91.527344 427.332031 92.167969 427.976562 92.328125 428.9375 C 92.492188 429.742188 91.847656 430.546875 90.882812 430.707031 Z M 165.257812 421.226562 L 104.214844 428.9375 C 104.214844 428.9375 104.054688 428.9375 104.054688 428.9375 C 103.253906 428.9375 102.609375 428.296875 102.449219 427.492188 C 102.289062 426.691406 102.933594 425.886719 103.894531 425.726562 L 164.9375 418.015625 C 165.898438 417.855469 166.542969 418.496094 166.703125 419.460938 C 166.863281 420.425781 166.058594 421.226562 165.257812 421.226562 Z M 184.050781 415.605469 C 184.855469 415.445312 185.65625 416.089844 185.816406 417.050781 C 185.980469 418.015625 185.335938 418.660156 184.371094 418.820312 L 177.304688 419.78125 C 177.304688 419.78125 177.144531 419.78125 177.144531 419.78125 C 176.339844 419.78125 175.699219 419.140625 175.539062 418.335938 C 175.375 417.535156 176.019531 416.730469 176.984375 416.570312 Z M 72.410156 405.808594 L 46.550781 406.933594 C 45.746094 406.933594 44.945312 406.289062 44.945312 405.324219 C 44.945312 404.363281 45.585938 403.71875 46.550781 403.71875 L 72.410156 402.59375 C 73.214844 402.59375 74.019531 403.238281 74.019531 404.203125 C 74.019531 405.164062 73.375 405.808594 72.410156 405.808594 Z M 103.253906 404.523438 L 87.511719 405.164062 C 86.707031 405.164062 85.90625 404.523438 85.90625 403.558594 C 85.90625 402.59375 86.546875 401.953125 87.511719 401.953125 L 103.253906 401.308594 C 104.214844 401.308594 104.859375 401.953125 104.859375 402.917969 C 104.859375 403.71875 104.214844 404.363281 103.253906 404.523438 Z M 123.492188 400.347656 L 182.765625 397.617188 C 183.570312 397.617188 184.371094 398.257812 184.371094 399.222656 C 184.371094 400.183594 183.730469 400.828125 182.765625 400.828125 L 123.492188 403.558594 C 122.6875 403.558594 121.886719 402.917969 121.886719 401.953125 C 121.886719 401.148438 122.6875 400.347656 123.492188 400.347656 Z M 43.980469 365.808594 C 43.820312 366.613281 43.175781 367.257812 42.375 367.257812 C 42.375 367.257812 42.210938 367.257812 42.210938 367.257812 L 1.894531 363.238281 C 1.089844 363.078125 0.449219 362.4375 0.449219 361.472656 C 0.449219 360.507812 1.25 360.027344 2.214844 360.027344 L 42.535156 364.042969 C 43.335938 364.203125 43.980469 364.847656 43.980469 365.808594 Z M 51.691406 366.613281 C 51.851562 365.808594 52.492188 365.167969 53.457031 365.167969 L 62.453125 366.132812 C 63.253906 366.292969 63.898438 366.933594 63.898438 367.898438 C 63.738281 368.703125 63.09375 369.34375 62.292969 369.34375 C 62.292969 369.34375 62.132812 369.34375 62.132812 369.34375 L 53.136719 368.378906 C 52.171875 368.21875 51.53125 367.417969 51.691406 366.613281 Z M 76.105469 367.417969 L 126.867188 372.558594 C 127.667969 372.71875 128.3125 373.359375 128.3125 374.324219 C 128.152344 375.125 127.507812 375.769531 126.707031 375.769531 C 126.707031 375.769531 126.542969 375.769531 126.542969 375.769531 L 75.785156 370.628906 C 74.980469 370.46875 74.339844 369.824219 74.339844 368.863281 C 74.5 368.058594 75.140625 367.417969 76.105469 367.417969 Z M 147.105469 374.644531 C 147.910156 374.804688 148.710938 375.449219 148.550781 376.410156 C 148.390625 377.214844 147.75 377.859375 146.945312 377.859375 C 146.945312 377.859375 146.785156 377.859375 146.785156 377.859375 L 141.164062 377.214844 C 140.359375 377.054688 139.554688 376.410156 139.714844 375.449219 C 139.878906 374.644531 140.519531 373.84375 141.484375 374.003906 Z M 160.917969 377.695312 C 161.082031 376.894531 161.722656 376.25 162.6875 376.25 L 183.410156 378.339844 C 184.210938 378.5 184.855469 379.144531 184.855469 380.105469 C 184.695312 380.910156 184.050781 381.550781 183.246094 381.550781 C 183.246094 381.550781 183.085938 381.550781 183.085938 381.550781 L 162.367188 379.464844 C 161.402344 379.304688 160.757812 378.5 160.917969 377.695312 Z M 129.597656 344.445312 C 129.4375 345.25 128.792969 345.730469 127.992188 345.730469 C 127.828125 345.730469 127.828125 345.730469 127.667969 345.730469 L 109.679688 341.714844 C 108.875 341.554688 108.234375 340.589844 108.394531 339.789062 C 108.554688 338.984375 109.519531 338.34375 110.320312 338.503906 L 128.3125 342.359375 C 129.273438 342.679688 129.757812 343.480469 129.597656 344.445312 Z M 185.65625 358.261719 L 140.679688 348.460938 C 139.878906 348.300781 139.234375 347.335938 139.394531 346.535156 C 139.554688 345.730469 140.519531 345.089844 141.324219 345.25 L 186.300781 355.046875 C 187.101562 355.207031 187.746094 356.171875 187.585938 356.976562 C 187.425781 357.777344 186.78125 358.261719 185.980469 358.261719 C 185.980469 358.261719 185.816406 358.261719 185.65625 358.261719 Z M 87.191406 302.683594 C 87.511719 301.878906 88.3125 301.398438 89.277344 301.558594 L 125.742188 313.121094 C 126.542969 313.445312 127.027344 314.246094 126.867188 315.210938 C 126.707031 315.855469 126.0625 316.335938 125.257812 316.335938 C 125.097656 316.335938 124.9375 316.335938 124.777344 316.335938 L 88.3125 304.769531 C 87.351562 304.449219 86.867188 303.484375 87.191406 302.683594 Z M 139.234375 317.621094 L 162.203125 325.007812 C 163.007812 325.332031 163.488281 326.132812 163.328125 327.097656 C 163.167969 327.742188 162.527344 328.222656 161.722656 328.222656 C 161.5625 328.222656 161.402344 328.222656 161.242188 328.222656 L 138.269531 320.832031 C 137.46875 320.511719 136.984375 319.707031 137.144531 318.746094 C 137.46875 317.78125 138.429688 317.300781 139.234375 317.621094 Z M 190.636719 337.21875 L 176.660156 332.71875 C 175.859375 332.398438 175.375 331.59375 175.699219 330.632812 C 176.019531 329.828125 176.824219 329.347656 177.785156 329.667969 L 191.761719 334.164062 C 192.566406 334.488281 193.046875 335.289062 192.726562 336.253906 C 192.566406 336.894531 191.921875 337.378906 191.117188 337.378906 C 190.957031 337.378906 190.796875 337.21875 190.636719 337.21875 Z M 196.097656 320.832031 L 159.3125 304.609375 C 158.511719 304.289062 158.1875 303.324219 158.511719 302.519531 C 158.832031 301.71875 159.796875 301.398438 160.597656 301.71875 L 197.382812 317.941406 C 198.1875 318.261719 198.507812 319.226562 198.1875 320.03125 C 197.867188 320.671875 197.382812 320.992188 196.742188 320.992188 C 196.582031 320.992188 196.257812 320.992188 196.097656 320.832031 Z M 104.859375 238.429688 C 105.339844 237.625 106.304688 237.464844 107.109375 237.785156 L 130.398438 250.957031 C 131.203125 251.441406 131.523438 252.402344 131.042969 253.207031 C 130.722656 253.6875 130.238281 254.011719 129.597656 254.011719 C 129.273438 254.011719 129.113281 254.011719 128.792969 253.847656 L 105.5 240.675781 C 104.699219 240.195312 104.539062 239.230469 104.859375 238.429688 Z M 189.351562 286.136719 C 189.03125 286.617188 188.546875 286.941406 187.90625 286.941406 C 187.585938 286.941406 187.425781 286.941406 187.101562 286.777344 L 144.535156 262.683594 C 143.730469 262.203125 143.410156 261.238281 143.894531 260.433594 C 144.375 259.632812 145.339844 259.3125 146.140625 259.792969 L 188.710938 283.886719 C 189.511719 284.371094 189.832031 285.332031 189.351562 286.136719 Z M 206.859375 297.863281 L 199.148438 293.527344 C 198.347656 293.042969 198.027344 292.078125 198.507812 291.277344 C 198.988281 290.472656 199.953125 290.3125 200.757812 290.632812 L 208.46875 294.972656 C 209.269531 295.453125 209.589844 296.417969 209.109375 297.21875 C 208.789062 297.703125 208.304688 298.023438 207.664062 298.023438 C 207.34375 298.023438 207.019531 298.023438 206.859375 297.863281 Z M 106.625 206.785156 C 107.109375 205.980469 108.070312 205.820312 108.875 206.300781 L 114.820312 210.15625 C 115.621094 210.640625 115.78125 211.601562 115.300781 212.40625 C 114.980469 212.886719 114.496094 213.210938 114.015625 213.210938 C 113.695312 213.210938 113.371094 213.050781 113.210938 212.886719 L 107.269531 209.03125 C 106.464844 208.550781 106.144531 207.585938 106.625 206.785156 Z M 125.097656 216.902344 L 163.972656 242.125 C 164.773438 242.605469 164.9375 243.570312 164.453125 244.371094 C 164.132812 244.855469 163.652344 245.175781 163.167969 245.175781 C 162.847656 245.175781 162.527344 245.015625 162.367188 244.855469 L 123.492188 219.636719 C 122.6875 219.152344 122.527344 218.1875 123.011719 217.386719 C 123.492188 216.582031 124.457031 216.421875 125.097656 216.902344 Z M 217.300781 280.835938 L 175.699219 253.6875 C 174.894531 253.207031 174.734375 252.242188 175.214844 251.441406 C 175.699219 250.636719 176.660156 250.476562 177.464844 250.957031 L 219.070312 278.105469 C 219.871094 278.585938 220.03125 279.550781 219.550781 280.355469 C 219.230469 280.835938 218.746094 281.15625 218.265625 281.15625 C 217.945312 280.996094 217.625 280.996094 217.300781 280.835938 Z M 90.722656 146.066406 C 90.082031 145.421875 89.921875 144.460938 90.5625 143.816406 C 91.207031 143.175781 92.167969 143.011719 92.8125 143.65625 L 103.414062 152.652344 C 104.054688 153.292969 104.214844 154.257812 103.574219 154.898438 C 103.253906 155.222656 102.769531 155.542969 102.289062 155.542969 C 101.96875 155.542969 101.484375 155.382812 101.324219 155.222656 Z M 110.480469 162.933594 C 109.839844 162.289062 109.679688 161.324219 110.320312 160.683594 C 110.964844 160.039062 111.925781 159.878906 112.570312 160.523438 L 141.324219 184.9375 C 141.964844 185.582031 142.125 186.542969 141.484375 187.1875 C 141.164062 187.507812 140.679688 187.828125 140.199219 187.828125 C 139.878906 187.828125 139.394531 187.667969 139.234375 187.507812 Z M 146.625 193.613281 C 145.980469 192.96875 145.820312 192.007812 146.464844 191.363281 C 147.105469 190.722656 148.070312 190.558594 148.710938 191.203125 L 156.261719 197.628906 C 156.902344 198.269531 157.066406 199.234375 156.421875 199.878906 C 156.101562 200.199219 155.617188 200.519531 155.136719 200.519531 C 154.816406 200.519531 154.332031 200.359375 154.171875 200.199219 Z M 164.613281 208.871094 C 163.972656 208.230469 163.8125 207.265625 164.453125 206.625 C 165.097656 205.980469 166.058594 205.820312 166.703125 206.464844 L 192.082031 227.988281 C 192.726562 228.628906 192.886719 229.59375 192.242188 230.238281 C 191.921875 230.558594 191.441406 230.878906 190.957031 230.878906 C 190.636719 230.878906 190.15625 230.71875 189.996094 230.558594 Z M 216.015625 252.402344 L 200.917969 239.554688 C 200.273438 238.910156 200.113281 237.945312 200.757812 237.304688 C 201.398438 236.660156 202.363281 236.5 203.003906 237.144531 L 218.105469 249.996094 C 218.746094 250.636719 218.90625 251.601562 218.265625 252.242188 C 217.945312 252.566406 217.460938 252.886719 216.980469 252.886719 C 216.660156 252.886719 216.339844 252.726562 216.015625 252.402344 Z M 225.011719 255.9375 L 231.917969 261.71875 C 232.5625 262.363281 232.722656 263.328125 232.078125 263.96875 C 231.757812 264.289062 231.277344 264.613281 230.796875 264.613281 C 230.472656 264.613281 229.992188 264.453125 229.832031 264.289062 L 222.925781 258.507812 C 222.28125 257.867188 222.121094 256.902344 222.761719 256.257812 C 223.40625 255.617188 224.371094 255.296875 225.011719 255.9375 Z M 243.964844 249.03125 L 206.378906 204.855469 C 205.734375 204.214844 205.898438 203.089844 206.539062 202.609375 C 207.183594 201.964844 208.304688 202.125 208.789062 202.769531 L 246.375 246.941406 C 247.019531 247.585938 246.859375 248.710938 246.214844 249.191406 C 245.894531 249.511719 245.574219 249.511719 245.25 249.511719 C 244.769531 249.671875 244.289062 249.511719 243.964844 249.03125 Z M 197.0625 148.152344 C 196.582031 147.511719 196.742188 146.386719 197.382812 145.90625 C 198.027344 145.421875 199.148438 145.582031 199.632812 146.226562 L 211.359375 162.609375 C 211.839844 163.253906 211.679688 164.378906 211.039062 164.859375 C 210.714844 165.019531 210.394531 165.179688 210.074219 165.179688 C 209.589844 165.179688 209.109375 165.019531 208.789062 164.539062 Z M 216.820312 175.941406 C 216.339844 175.300781 216.5 174.175781 217.140625 173.695312 C 217.785156 173.210938 218.90625 173.371094 219.390625 174.015625 L 238.503906 200.839844 C 238.988281 201.484375 238.828125 202.609375 238.183594 203.089844 C 237.863281 203.25 237.542969 203.410156 237.21875 203.410156 C 236.738281 203.410156 236.257812 203.25 235.933594 202.769531 Z M 246.535156 217.546875 C 246.054688 216.902344 246.214844 215.78125 246.859375 215.296875 C 247.5 214.816406 248.625 214.976562 249.105469 215.617188 L 262.117188 233.769531 C 262.601562 234.414062 262.441406 235.539062 261.796875 236.019531 C 261.476562 236.179688 261.15625 236.339844 260.832031 236.339844 C 260.351562 236.339844 259.871094 236.179688 259.546875 235.699219 Z M 255.691406 181.082031 C 256.496094 180.601562 257.460938 180.921875 257.78125 181.726562 L 278.824219 222.367188 C 279.304688 223.167969 278.984375 224.132812 278.179688 224.453125 C 278.019531 224.613281 277.699219 224.613281 277.378906 224.613281 C 276.734375 224.613281 276.253906 224.292969 275.933594 223.8125 L 254.890625 183.171875 C 254.570312 182.527344 254.890625 181.566406 255.691406 181.082031 Z M 247.179688 103.335938 C 246.859375 102.535156 247.179688 101.570312 247.984375 101.25 C 248.785156 100.925781 249.75 101.25 250.070312 102.050781 L 254.730469 112.652344 C 255.050781 113.457031 254.730469 114.421875 253.925781 114.742188 C 253.765625 114.902344 253.445312 114.902344 253.285156 114.902344 C 252.640625 114.902344 252.160156 114.582031 251.835938 113.9375 Z M 256.816406 125.023438 C 256.496094 124.21875 256.816406 123.253906 257.621094 122.933594 C 258.421875 122.613281 259.386719 122.933594 259.707031 123.738281 L 288.300781 187.667969 C 288.621094 188.472656 288.300781 189.4375 287.5 189.757812 C 287.335938 189.917969 287.015625 189.917969 286.855469 189.917969 C 286.214844 189.917969 285.730469 189.597656 285.410156 188.953125 Z M 299.0625 211.601562 C 299.386719 212.40625 299.0625 213.371094 298.261719 213.691406 C 298.101562 213.851562 297.777344 213.851562 297.617188 213.851562 C 296.976562 213.851562 296.492188 213.53125 296.171875 212.886719 L 290.230469 199.714844 C 289.90625 198.914062 290.230469 197.949219 291.03125 197.628906 C 291.835938 197.308594 292.800781 197.628906 293.121094 198.429688 Z M 267.902344 77.476562 C 267.578125 76.671875 268.0625 75.707031 268.863281 75.386719 C 269.667969 75.066406 270.632812 75.546875 270.953125 76.351562 L 278.984375 99.644531 C 279.304688 100.445312 278.824219 101.410156 278.019531 101.730469 C 277.859375 101.730469 277.699219 101.890625 277.539062 101.890625 C 276.894531 101.890625 276.253906 101.410156 276.09375 100.765625 Z M 283.160156 121.808594 C 282.839844 121.007812 283.320312 120.042969 284.125 119.722656 C 284.929688 119.398438 285.890625 119.882812 286.214844 120.683594 L 292.316406 138.515625 C 292.636719 139.320312 292.15625 140.28125 291.351562 140.605469 C 291.191406 140.605469 291.03125 140.765625 290.871094 140.765625 C 290.230469 140.765625 289.585938 140.28125 289.425781 139.640625 Z M 299.222656 162.933594 C 299.0625 162.933594 298.902344 163.09375 298.742188 163.09375 C 298.101562 163.09375 297.457031 162.609375 297.296875 161.96875 L 293.921875 152.007812 C 293.601562 151.207031 294.085938 150.242188 294.886719 149.921875 C 295.691406 149.597656 296.652344 150.082031 296.976562 150.882812 L 300.347656 160.84375 C 300.507812 161.648438 300.027344 162.609375 299.222656 162.933594 Z M 303.722656 171.445312 L 315.449219 205.179688 C 315.769531 205.980469 315.289062 206.945312 314.484375 207.265625 C 314.324219 207.265625 314.164062 207.425781 314.003906 207.425781 C 313.359375 207.425781 312.71875 206.945312 312.558594 206.300781 L 300.832031 172.570312 C 300.507812 171.765625 300.992188 170.800781 301.792969 170.480469 C 302.597656 170.160156 303.5625 170.480469 303.722656 171.445312 Z M 290.066406 18.84375 C 289.90625 18.042969 290.390625 17.078125 291.191406 16.917969 C 291.996094 16.757812 292.960938 17.238281 293.121094 18.042969 L 304.203125 64.304688 C 304.363281 65.105469 303.882812 66.070312 303.078125 66.230469 C 302.917969 66.230469 302.757812 66.230469 302.757812 66.230469 C 301.953125 66.230469 301.3125 65.75 301.152344 64.945312 Z M 306.453125 86.953125 C 306.292969 86.148438 306.773438 85.1875 307.578125 85.023438 C 308.378906 84.863281 309.34375 85.347656 309.503906 86.148438 L 322.996094 142.53125 C 323.160156 143.335938 322.675781 144.296875 321.875 144.460938 C 321.710938 144.460938 321.550781 144.460938 321.550781 144.460938 C 320.75 144.460938 320.105469 143.976562 319.945312 143.175781 Z M 323.800781 159.078125 C 323.640625 158.273438 324.121094 157.308594 324.925781 157.148438 C 325.730469 156.988281 326.691406 157.46875 326.851562 158.273438 L 336.652344 198.753906 C 336.8125 199.554688 336.332031 200.519531 335.527344 200.679688 C 335.367188 200.679688 335.207031 200.679688 335.207031 200.679688 C 334.402344 200.679688 333.761719 200.199219 333.597656 199.394531 Z M 353.355469 155.542969 C 353.355469 155.542969 353.195312 155.542969 353.195312 155.542969 C 352.394531 155.542969 351.75 154.898438 351.589844 154.097656 L 349.664062 136.75 C 349.503906 135.945312 350.144531 135.140625 351.109375 134.980469 C 351.910156 134.820312 352.714844 135.464844 352.875 136.425781 L 354.804688 153.777344 C 354.804688 154.738281 354.160156 155.542969 353.355469 155.542969 Z M 356.089844 195.21875 L 352.875 165.984375 C 352.714844 165.179688 353.355469 164.378906 354.320312 164.214844 C 355.125 164.054688 355.925781 164.699219 356.089844 165.664062 L 359.300781 194.898438 C 359.460938 195.699219 358.820312 196.503906 357.855469 196.664062 C 357.855469 196.664062 357.695312 196.664062 357.695312 196.664062 C 356.890625 196.664062 356.089844 196.183594 356.089844 195.21875 Z M 534.230469 447.734375 C 532.460938 447.734375 531.015625 446.285156 531.015625 444.519531 C 531.015625 442.753906 532.460938 441.308594 534.230469 441.308594 C 535.996094 441.308594 537.441406 442.753906 537.441406 444.519531 C 537.441406 446.285156 535.996094 447.734375 534.230469 447.734375 Z M 580.972656 158.433594 C 580.972656 155.863281 583.0625 153.9375 585.472656 153.9375 C 587.878906 153.9375 589.96875 156.023438 589.96875 158.433594 C 589.96875 160.84375 587.878906 162.933594 585.472656 162.933594 C 583.0625 162.933594 580.972656 161.003906 580.972656 158.433594 Z M 654.382812 325.171875 C 655.988281 325.171875 657.273438 326.457031 657.273438 328.0625 C 657.273438 329.667969 655.988281 330.953125 654.382812 330.953125 C 652.777344 330.953125 651.492188 329.667969 651.492188 328.0625 C 651.492188 326.457031 652.777344 325.171875 654.382812 325.171875 Z M 687.953125 459.136719 C 686.667969 459.136719 685.542969 458.011719 685.542969 456.726562 C 685.542969 455.441406 686.667969 454.320312 687.953125 454.320312 C 689.238281 454.320312 690.363281 455.441406 690.363281 456.726562 C 690.363281 458.011719 689.238281 459.136719 687.953125 459.136719 Z M 534.390625 638.5625 C 534.390625 640.8125 532.621094 642.578125 530.375 642.578125 C 528.125 642.578125 526.359375 640.8125 526.359375 638.5625 C 526.359375 636.316406 528.125 634.546875 530.375 634.546875 C 532.621094 634.546875 534.390625 636.476562 534.390625 638.5625 Z M 367.492188 660.730469 C 367.492188 662.980469 365.726562 664.746094 363.476562 664.746094 C 361.226562 664.746094 359.460938 662.980469 359.460938 660.730469 C 359.460938 658.480469 361.226562 656.714844 363.476562 656.714844 C 365.726562 656.714844 367.492188 658.480469 367.492188 660.730469 Z M 111.445312 521.460938 C 113.371094 521.460938 114.820312 522.910156 114.820312 524.835938 C 114.820312 526.765625 113.371094 528.210938 111.445312 528.210938 C 109.519531 528.210938 108.070312 526.765625 108.070312 524.835938 C 108.070312 522.910156 109.519531 521.460938 111.445312 521.460938 Z M 22.453125 408.378906 C 22.453125 410.144531 21.007812 411.429688 19.402344 411.429688 C 17.796875 411.429688 16.351562 409.984375 16.351562 408.378906 C 16.351562 406.609375 17.796875 405.324219 19.402344 405.324219 C 21.007812 405.324219 22.453125 406.769531 22.453125 408.378906 Z M 85.101562 339.789062 C 83.175781 339.789062 81.566406 338.179688 81.566406 336.253906 C 81.566406 334.328125 83.175781 332.71875 85.101562 332.71875 C 87.027344 332.71875 88.636719 334.328125 88.636719 336.253906 C 88.636719 338.179688 87.027344 339.789062 85.101562 339.789062 Z M 165.097656 161.648438 C 165.097656 159.398438 167.023438 157.46875 169.273438 157.46875 C 171.523438 157.46875 173.449219 159.398438 173.449219 161.648438 C 173.449219 163.894531 171.523438 165.824219 169.273438 165.824219 C 166.863281 165.984375 165.097656 164.054688 165.097656 161.648438 Z M 165.097656 161.648438 "/></g></g></svg>